<?xml version="1.0" encoding="UTF-8" standalone="no"?>
<svg
   version="1.0"
   width="63.999996pt"
   height="64.000015pt"
   viewBox="0 0 63.999998 64.000016"
   preserveAspectRatio="xMidYMid"
   id="svg43"
   sodipodi:docname="vortex.svg"
   inkscape:version="1.4 (86a8ad7, 2024-10-11)"
   xmlns:inkscape="http://www.inkscape.org/namespaces/inkscape"
   xmlns:sodipodi="http://sodipodi.sourceforge.net/DTD/sodipodi-0.dtd"
   xmlns="http://www.w3.org/2000/svg"
   xmlns:svg="http://www.w3.org/2000/svg">
  <defs
     id="defs43" />
  <sodipodi:namedview
     id="namedview43"
     pagecolor="#ffffff"
     bordercolor="#000000"
     borderopacity="0.25"
     inkscape:showpageshadow="2"
     inkscape:pageopacity="0.0"
     inkscape:pagecheckerboard="0"
     inkscape:deskcolor="#d1d1d1"
     inkscape:document-units="pt"
     inkscape:zoom="10.068493"
     inkscape:cx="52.341497"
     inkscape:cy="28.753061"
     inkscape:window-width="1920"
     inkscape:window-height="974"
     inkscape:window-x="-11"
     inkscape:window-y="-11"
     inkscape:window-maximized="1"
     inkscape:current-layer="svg43" />
  <g
     transform="matrix(0.01590862,0,0,-0.01701268,-17.542063,69.061555)"
     fill="#40d0a5"
     stroke="none"
     id="g43">
    <path
       d="m 2455,4036 c -11,-31 22,-158 47,-185 42,-44 63,24 34,111 -29,88 -65,120 -81,74 z"
       id="path1" />
    <path
       d="m 3647,4025 c -6,-19 -20,-60 -32,-91 -23,-61 8,-120 43,-83 25,26 63,171 50,192 -17,28 -49,19 -61,-18 z"
       id="path2" />
    <path
       d="m 3043,3943 c -45,-29 -19,-93 37,-93 40,0 50,10 50,50 0,52 -41,72 -87,43 z"
       id="path3" />
    <path
       d="m 2533,3765 c -25,-40 42,-215 84,-221 63,-10 72,40 26,145 -37,82 -85,116 -110,76 z"
       id="path4" />
    <path
       d="m 3546,3745 c -6,-19 -23,-63 -37,-97 -28,-71 -11,-115 41,-105 37,7 97,166 80,212 -13,37 -69,30 -84,-10 z"
       id="path5" />
    <path
       d="m 3040,3730 c -18,-22 -20,-38 -5,-53 33,-33 95,-11 95,33 0,50 -55,62 -90,20 z"
       id="path6" />
    <path
       d="m 2012,3589 c -17,-46 2,-69 61,-69 40,0 49,9 43,45 -7,55 -85,73 -104,24 z"
       id="path7" />
    <path
       d="m 4053,3607 c -33,-34 -11,-87 36,-87 56,0 76,23 59,68 -12,32 -70,43 -95,19 z"
       id="path8" />
    <path
       d="m 5710,3578 c -73,-8 -84,-13 -40,-17 67,-6 136,-1 148,11 17,16 -11,18 -108,6 z"
       id="path9" />
    <path
       d="m 3963,3462 c -36,-23 -21,-90 22,-98 19,-4 41,8 48,26 16,43 -34,94 -70,72 z"
       id="path10" />
    <path
       d="m 2126,3428 c -12,-32 23,-67 67,-68 27,0 52,56 36,82 -19,30 -89,20 -103,-14 z"
       id="path11" />
    <path
       d="m 1480,3322 c 0,-27 118,-122 152,-122 51,0 29,56 -39,98 -72,45 -113,53 -113,24 z"
       id="path12" />
    <path
       d="m 4565,3298 c -70,-45 -87,-98 -30,-97 40,0 145,86 145,118 0,32 -44,24 -115,-21 z"
       id="path13" />
    <path
       d="m 2570,3042 c -264,-153 -500,-294 -525,-311 -71,-52 -71,-1190 0,-1242 25,-17 239,-142 475,-276 237,-134 460,-262 496,-283 61,-37 70,-37 120,-8 30,17 239,137 464,267 226,129 444,257 485,283 l 75,49 v 584 c 0,322 -7,594 -15,606 -23,32 -1007,595 -1054,603 -25,4 -223,-99 -521,-272 z m 634,29 c 63,-38 157,-93 210,-122 329,-182 486,-275 486,-286 0,-7 -56,-42 -125,-78 -295,-154 -357,-215 -291,-281 43,-43 100,-25 301,96 109,66 200,120 202,120 1,0 3,-207 3,-459 v -459 l -168,-94 c -93,-51 -272,-155 -398,-231 -126,-75 -238,-137 -248,-137 -12,0 -17,117 -13,295 6,316 0,345 -72,345 -84,0 -94,-38 -90,-354 2,-163 -4,-294 -14,-293 -9,2 -134,73 -277,158 -143,85 -323,192 -400,237 l -140,82 -5,455 c -3,250 0,455 7,455 7,0 102,-54 211,-120 204,-123 281,-145 313,-87 38,67 -1,107 -208,219 -249,133 -251,135 -147,188 85,44 534,301 659,377 87,53 69,55 204,-26 z"
       id="path14" />
    <path
       d="m 3067,2475 c -9,-14 -30,-65 -47,-115 -28,-85 -36,-92 -135,-118 -115,-30 -138,-74 -50,-93 133,-29 164,-52 188,-136 44,-154 105,-143 115,21 3,43 64,86 154,108 117,30 112,68 -14,98 -105,26 -158,92 -158,198 0,49 -32,71 -53,37 z"
       id="path15" />
    <path
       d="m 2246,3268 c -12,-33 29,-72 64,-61 11,3 23,26 26,50 8,52 -70,62 -90,11 z"
       id="path16" />
    <path
       d="m 3827,3269 c -7,-19 -1,-41 15,-51 40,-25 68,-11 68,33 0,49 -66,63 -83,18 z"
       id="path17" />
    <path
       d="m 1700,3152 c 0,-41 155,-158 190,-145 49,19 34,65 -39,121 -74,57 -151,69 -151,24 z"
       id="path18" />
    <path
       d="m 4313,3128 c -78,-53 -92,-112 -29,-124 39,-8 176,109 176,149 0,42 -64,32 -147,-25 z"
       id="path19" />
    <path
       d="m 5933,3070 c 11,-30 6,-34 -30,-25 -23,6 -48,3 -55,-8 -6,-10 19,-16 60,-14 79,6 88,19 42,57 -26,22 -29,20 -17,-10 z"
       id="path20" />
    <path
       d="m 4691,2753 c -47,-34 -28,-93 29,-93 52,0 74,54 37,92 -24,24 -34,24 -66,1 z"
       id="path21" />
    <path
       d="m 1387,2730 c -7,-18 -3,-42 8,-53 33,-33 95,-11 95,33 0,51 -85,67 -103,20 z"
       id="path22" />
    <path
       d="m 1574,2674 c -15,-41 16,-79 58,-71 54,11 50,85 -4,93 -24,3 -48,-6 -54,-22 z"
       id="path23" />
    <path
       d="m 4492,2668 c -16,-42 2,-68 47,-68 39,0 61,34 46,75 -12,36 -78,31 -93,-7 z"
       id="path24" />
    <path
       d="m 4545,2209 c -19,-14 -26,-37 -18,-58 23,-59 268,-25 248,35 -11,34 -191,52 -230,23 z"
       id="path25" />
    <path
       d="m 1122,2202 c -49,-32 -1,-62 101,-62 84,0 99,5 93,35 -7,39 -145,59 -194,27 z"
       id="path26" />
    <path
       d="m 1389,2198 c -23,-38 20,-58 132,-63 99,-5 110,-1 115,40 7,50 -218,71 -247,23 z"
       id="path27" />
    <path
       d="m 4851,2201 c -25,-40 12,-61 112,-61 84,0 99,5 93,35 -7,40 -183,63 -205,26 z"
       id="path28" />
    <path
       d="m 1593,1747 c -29,-30 -12,-87 26,-87 47,0 65,26 49,68 -13,33 -51,42 -75,19 z"
       id="path29" />
    <path
       d="m 4501,1731 c -30,-36 -11,-71 39,-71 21,0 43,9 51,21 13,21 -24,79 -51,79 -8,0 -26,-13 -39,-29 z"
       id="path30" />
    <path
       d="m 1387,1668 c -21,-54 46,-104 86,-64 41,41 22,96 -33,96 -23,0 -47,-14 -53,-32 z"
       id="path31" />
    <path
       d="m 4671,1666 c -21,-55 41,-103 82,-62 18,18 27,47 20,64 -16,42 -85,41 -102,-2 z"
       id="path32" />
    <path
       d="m 1540,1101 c -49,-41 -64,-65 -49,-80 26,-26 169,67 169,110 0,45 -43,34 -120,-30 z"
       id="path33" />
    <path
       d="m 4500,1131 c 0,-28 130,-131 165,-131 38,0 9,60 -54,108 -77,59 -111,66 -111,23 z"
       id="path34" />
    <path
       d="m 2141,962 c -30,-57 28,-102 73,-56 27,26 28,37 7,63 -34,41 -55,39 -80,-7 z"
       id="path35" />
    <path
       d="m 3953,987 c -21,-21 -15,-83 9,-98 39,-24 89,44 59,80 -28,34 -47,39 -68,18 z"
       id="path36" />
    <path
       d="m 2023,814 c -17,-21 -16,-36 3,-62 34,-46 98,-21 90,35 -7,51 -60,66 -93,27 z"
       id="path37" />
    <path
       d="m 4047,808 c -7,-17 3,-46 21,-65 44,-43 109,23 69,70 -30,36 -76,34 -90,-5 z"
       id="path38" />
    <path
       d="m 2597,795 c -34,-27 -76,-169 -62,-210 18,-54 62,-20 103,79 48,116 26,185 -41,131 z"
       id="path39" />
    <path
       d="m 3522,801 c -33,-20 -17,-131 29,-197 62,-88 99,-33 62,93 -29,99 -54,127 -91,104 z"
       id="path40" />
    <path
       d="m 3040,490 c -33,-40 -11,-90 40,-90 23,0 46,14 53,30 11,30 -24,90 -53,90 -8,0 -26,-13 -40,-30 z"
       id="path41" />
    <path
       d="m 2480,449 c -26,-67 -26,-149 0,-149 21,0 80,127 80,172 0,48 -60,30 -80,-23 z"
       id="path42" />
    <path
       d="m 3600,486 c 1,-25 51,-164 65,-178 35,-34 49,19 26,97 -22,72 -92,135 -91,81 z"
       id="path43" />
  </g>
</svg>
